<mxfile host="app.diagrams.net" modified="2023-11-01T23:22:39.038Z" agent="Mozilla/5.0 (Macintosh; Intel Mac OS X 10_15_7) AppleWebKit/537.36 (KHTML, like Gecko) Chrome/115.0.0.0 Safari/537.36" version="22.0.8" etag="oJOg-CyA17TEvGpGeTu6" type="github">
  <diagram name="Page-1" id="9Fzj7FYpV15nLYCDZpO6">
    <mxGraphModel>
      <root>
        <mxCell id="0" />
        <mxCell id="1" parent="0" />
      </root>
    </mxGraphModel>
  </diagram>
</mxfile>
